
<svg width="224" height="230" viewBox="0 0 224 230" fill="none" xmlns="http://www.w3.org/2000/svg">
<path d="M28.8631 55.48C29.0057 55.5047 29.2123 55.5243 29.3504 55.5802C29.6473 55.7004 29.7577 55.7771 29.8422 56.0893C29.9522 56.496 29.9554 65.0718 29.8619 65.4797C29.8355 65.5949 29.8008 65.6286 29.7391 65.7136C29.3462 65.6308 28.9742 65.4942 28.5957 65.3629C28.5901 63.5194 28.292 56.8651 28.8631 55.48Z" fill="#111111"/>
<path d="M51.8709 55.6292C52.1434 55.6275 52.396 55.6585 52.6653 55.6941C52.9424 55.908 53.0002 55.9082 53.0463 56.2664C53.1574 57.1291 53.1298 64.6132 52.9479 64.9464C52.8801 65.0702 52.7726 65.1678 52.6852 65.2784C52.388 65.4027 52.079 65.4705 51.7673 65.547C51.7375 65.4829 51.6982 65.4223 51.6779 65.3545C51.5294 64.8667 51.6011 57.1378 51.6684 56.379C51.6944 56.0884 51.752 55.8922 51.8709 55.6292Z" fill="#111111"/>
<path d="M39.0139 41.3762C40.4118 41.6186 41.668 41.6799 43.0647 41.3743C43.0615 41.7514 42.9988 42.0141 43.2439 42.3343C43.7767 43.0301 45.7358 43.0647 46.5728 43.2321C45.9266 44.8383 45.039 45.9325 43.3962 46.6288C41.7852 47.3117 39.7961 47.3648 38.1747 46.692C36.6145 46.0449 35.6119 44.7755 34.9962 43.2437C36.012 42.9034 38.0035 43.0107 38.7603 42.283C39.055 41.9996 38.9947 41.7543 39.0139 41.3762Z" fill="#FFF5F6"/>
<path d="M111.06 178.125L111.132 161.153C111.146 159.356 110.953 156.451 111.118 154.824C111.166 154.35 111.263 154.002 111.6 153.646C111.907 153.525 111.962 153.526 112.289 153.576C112.635 153.814 112.842 154.024 112.922 154.453C113.209 155.999 112.939 160.685 112.923 162.615L112.921 178.087L111.06 178.125Z" fill="#111111"/>
<path d="M111.043 50.9371C111.697 50.9577 112.325 50.943 112.978 50.8931C112.973 53.6262 113.241 74.1753 112.681 75.6146C112.396 75.842 112.261 75.9592 111.886 76.0077C111.55 75.8415 111.387 75.6739 111.25 75.3174C110.788 74.1121 111.04 54.2268 111.043 50.9371Z" fill="#111111"/>
<path d="M178.686 115.562C175.209 115.569 151.914 115.769 151.192 115.44C150.906 115.31 150.683 115.025 150.599 114.729C150.54 114.521 150.619 114.466 150.707 114.284C151.143 113.954 151.621 113.852 152.16 113.802C154.64 113.573 157.293 113.801 159.797 113.79L178.72 113.791L178.686 115.562Z" fill="#111111"/>
<path d="M43.0959 113.8L63.5342 113.801C66.6605 113.801 69.8339 113.678 72.9531 113.783C73.3093 113.795 73.7961 113.86 74.0737 114.111C74.2638 114.283 74.3541 114.61 74.2941 114.859C74.218 115.175 74.0826 115.369 73.7889 115.516C73.1383 115.842 46.218 115.578 43.1122 115.622L43.0959 113.8Z" fill="#111111"/>
<path d="M151.343 203.844C152.437 204.585 153.491 205.995 154.416 206.965C155.199 207.787 156.033 208.516 156.925 209.218C154.925 210.766 153.03 212.658 151.394 214.588C150.779 214.165 150.178 213.386 149.654 212.847C148.418 211.575 147.196 210.306 145.805 209.201C147.855 207.666 149.577 205.69 151.343 203.844Z" fill="#303030"/>
<path d="M76.0201 16.7629C77.8903 18.4411 79.5464 20.371 81.4146 22.0681C79.8288 23.9775 77.7959 25.7578 75.9996 27.479C74.1766 25.649 72.3822 23.7714 70.4571 22.0482C72.3607 20.3403 74.1345 18.4924 76.0201 16.7629Z" fill="#F84757"/>
<path d="M11.1088 147.708C11.3598 147.695 11.6194 147.691 11.8701 147.711C12.3285 147.748 12.799 147.961 13.0834 148.331C13.73 149.172 13.4142 150.606 13.3105 151.573C14.0267 151.578 14.8295 151.502 15.5312 151.633C16.1746 151.753 16.9758 152.029 17.3258 152.631C17.5665 153.046 17.4684 153.411 17.3308 153.828L17.2412 153.666L17.2795 153.935C17.1516 154.179 16.9799 154.38 16.785 154.574C16.1412 155.213 14.2028 154.989 13.3098 154.985L13.3168 157.645C12.933 158.098 12.5949 158.423 12.0868 158.737C11.4602 158.723 10.8182 158.67 10.3488 158.206C9.63623 157.502 9.90356 155.632 9.91741 154.721C8.89538 154.755 7.89369 154.783 6.87292 154.691C6.68097 154.543 6.48072 154.392 6.3103 154.218C5.9142 153.815 5.64428 153.259 5.66337 152.695C5.77305 152.427 5.87961 152.244 6.11204 152.062C7.19622 151.217 8.65501 151.463 9.91579 151.576C9.89915 150.796 9.78779 149.846 9.97963 149.092C10.1601 148.382 10.5032 148.082 11.1088 147.708Z" fill="#303030"/>
<path d="M208.98 143.844C209.268 143.813 209.562 143.776 209.852 143.776C210.315 143.776 210.812 143.939 211.137 144.277C211.852 145.022 211.677 146.418 211.662 147.357C212.828 147.361 214.159 147.274 215.087 148.112C215.43 148.421 215.697 148.864 215.692 149.337C215.688 149.736 215.484 150.112 215.205 150.388C214.278 151.305 213.004 151.187 211.813 151.155C211.748 151.791 211.708 152.474 211.554 153.094C211.376 153.808 211.056 154.163 210.439 154.531C210.354 154.54 210.268 154.548 210.183 154.554C209.632 154.591 209.072 154.537 208.652 154.142C207.862 153.398 207.991 151.953 207.98 150.965C206.818 150.986 205.598 151.098 204.641 150.295C204.289 150 204.009 149.563 203.998 149.092C203.988 148.67 204.194 148.284 204.492 147.996C205.407 147.109 206.829 147.263 207.993 147.314C207.994 146.703 207.963 146.052 208.029 145.445C208.11 144.694 208.404 144.305 208.98 143.844Z" fill="#F84757"/>
<path d="M70.2171 206.917C70.9659 206.869 71.5849 206.869 72.1814 207.388C73.0485 208.142 73.0773 209.465 73.1429 210.523C74.2102 210.584 75.2742 210.586 76.1407 211.31C76.55 211.651 76.8656 212.165 76.8854 212.709C76.9029 213.192 76.6832 213.642 76.3543 213.985C75.5001 214.876 74.325 214.896 73.1829 214.917C73.0674 215.625 72.9913 216.415 72.7331 217.086C72.4517 217.818 72.0364 218.129 71.3457 218.456C71.1509 218.501 70.9577 218.521 70.7584 218.53C70.1967 218.557 69.677 218.423 69.2679 218.017C68.4714 217.226 68.5147 215.865 68.5 214.832C67.3396 214.832 66.2602 214.869 65.3503 214.01C64.9853 213.665 64.7146 213.193 64.7073 212.681C64.7005 212.188 64.9405 211.726 65.2801 211.381C66.142 210.504 67.2583 210.433 68.4069 210.411C68.459 209.842 68.4828 209.224 68.6431 208.675C68.9049 207.779 69.4246 207.351 70.2171 206.917Z" fill="#696969"/>
<path d="M144.697 11.9683C144.736 11.9691 144.775 11.9695 144.814 11.9708C145.509 11.9939 146.3 12.1644 146.776 12.7168C147.481 13.5344 147.296 14.7242 147.224 15.7096C148.463 15.6895 149.687 15.6033 150.665 16.5253C151.058 16.8959 151.337 17.3962 151.342 17.9457C151.348 18.4761 151.088 18.9612 150.702 19.3131C149.733 20.1957 148.453 20.0537 147.25 20.0048C147.312 20.7745 147.472 21.7009 147.234 22.4439C146.983 23.2298 146.352 23.5657 145.653 23.9084C145.562 23.9098 145.471 23.9093 145.38 23.9067C144.758 23.8871 144.058 23.6856 143.637 23.1995C142.896 22.3439 143.08 20.9859 143.115 19.9479C142.526 19.9879 141.824 20.1305 141.245 20.0194C140.57 19.8895 139.861 19.4785 139.482 18.8956C139.209 18.4759 139.115 17.9784 139.254 17.4941C139.503 16.6273 140.13 16.1351 140.884 15.721C141.625 15.6888 142.38 15.7503 143.122 15.7806C143.078 14.9711 142.92 13.9789 143.217 13.2149C143.486 12.5217 144.053 12.2499 144.697 11.9683Z" fill="#303030"/>
<path d="M14.9199 67.7998C15.141 67.7661 15.3597 67.733 15.5839 67.7293C16.1979 67.7196 16.8198 67.934 17.2424 68.3927C18.0184 69.2345 17.9162 70.5639 17.9051 71.6184C18.836 71.6787 19.6718 71.7455 20.4231 72.3694C20.9174 72.7799 21.2412 73.3524 21.2828 73.9983C21.2877 74.0668 21.2891 74.1353 21.2872 74.204C21.2851 74.2727 21.2795 74.3411 21.2705 74.4091C21.2616 74.4772 21.2493 74.5447 21.2334 74.6116C21.2176 74.6784 21.1985 74.7443 21.176 74.8092C21.1536 74.8741 21.128 74.9377 21.0993 75C21.0704 75.0624 21.0384 75.1231 21.0034 75.1822C20.9683 75.2413 20.9304 75.2984 20.8895 75.3536C20.8488 75.4088 20.8054 75.4619 20.7592 75.5127C20.0281 76.3246 19.0661 76.3701 18.0555 76.3921C18.0351 77.0426 17.9944 77.7777 17.7685 78.3924C17.4783 79.1816 16.9811 79.5687 16.2444 79.923C15.3502 79.9302 14.8799 79.7852 14.1085 79.332C13.4975 78.3396 13.4241 77.4909 13.4256 76.3565L11.3078 76.2253C11.149 76.1342 10.9904 76.0451 10.8424 75.9368C10.3016 75.5411 9.78679 74.8816 9.71992 74.1957C9.66048 73.5859 9.92779 73.0119 10.343 72.5769C11.2247 71.6535 12.248 71.645 13.4273 71.6302C13.4207 70.9187 13.3321 70.0534 13.5297 69.3682C13.7603 68.5687 14.2299 68.2115 14.9199 67.7998Z" fill="#F84757"/>
<path d="M112.921 178.087C114.989 178.176 117.431 178.349 118.927 179.984C119.435 180.54 119.768 181.234 119.948 181.961C120.375 183.687 120.26 187.455 120.123 189.324L120.111 189.49C119.784 189.631 119.636 189.725 119.417 190.01C119.372 190.069 119.245 190.24 119.194 190.297C118.988 190.527 118.858 190.636 118.551 190.655C117.843 189.799 118.913 186.662 118.149 185.293C118.099 185.204 118.068 185.165 117.998 185.09C117.444 184.5 116.286 184.875 115.597 185.027C112.424 185.726 109.747 185.425 106.598 184.695C106.573 186.119 106.788 187.861 106.54 189.244C106.466 189.654 106.241 189.938 105.896 190.164C105.485 190.027 105.432 189.463 105.098 189.165C104.937 189.02 104.595 189.083 104.383 189.083C104.083 188.657 104.22 187.584 104.222 187.031C104.215 185.902 104.216 184.774 104.222 183.645C104.245 182.047 104.613 180.563 105.826 179.438C107.351 178.021 109.135 178.085 111.06 178.125L112.921 178.087Z" fill="#111111"/>
<path d="M106.598 184.696C109.747 185.425 112.424 185.726 115.597 185.027C116.286 184.875 117.444 184.5 117.998 185.09C118.068 185.165 118.099 185.204 118.149 185.293C118.913 186.662 117.843 189.799 118.551 190.655C118.858 190.636 118.988 190.527 119.194 190.297C119.245 190.24 119.372 190.069 119.417 190.01C119.636 189.725 119.784 189.631 120.111 189.49C120.529 190.189 120.733 190.719 120.53 191.531C120.305 192.43 119.815 193.236 119.379 194.045C118.237 196.162 117.326 197.578 115.391 199.034L115.368 202.185C115.039 201.43 115.256 199.925 115.272 199.082C114.843 199.299 114.396 199.504 113.937 199.647C112.229 200.179 110.754 199.769 109.224 198.996C108.855 198.595 108.342 198.303 107.937 197.929C106.387 196.493 105.881 195.019 105.262 193.083C104.996 192.849 104.724 192.613 104.491 192.346C103.285 190.96 104.091 189.631 104.164 188.076L104.222 187.031C104.22 187.584 104.083 188.657 104.383 189.083C104.595 189.084 104.937 189.021 105.098 189.165C105.432 189.464 105.485 190.027 105.896 190.164C106.241 189.938 106.466 189.654 106.54 189.244C106.788 187.861 106.573 186.119 106.598 184.696Z" fill="#FFF5F6"/>
<path d="M195.899 99.7269C194.719 98.8971 193.691 97.9364 192.929 96.7005C191.593 94.5358 191.236 91.9224 191.819 89.4571C192.407 86.9713 193.941 84.7183 196.137 83.3838C198.229 82.1123 200.939 81.718 203.309 82.3218C205.818 82.9614 208.213 84.6592 209.509 86.9188C209.588 87.0588 209.663 87.2007 209.735 87.3445C209.806 87.4882 209.874 87.6337 209.938 87.781C210.003 87.928 210.063 88.0767 210.12 88.2268C210.177 88.3771 210.231 88.5287 210.28 88.6814C210.329 88.8343 210.375 88.9883 210.417 89.1433C210.458 89.2984 210.496 89.4545 210.53 89.6114C210.564 89.7685 210.594 89.9263 210.62 90.0846C210.646 90.2432 210.668 90.4022 210.687 90.5618C210.705 90.7213 210.719 90.8812 210.729 91.0415C210.739 91.2019 210.746 91.3623 210.748 91.5228C210.75 91.6834 210.748 91.844 210.742 92.0045C210.737 92.165 210.727 92.3252 210.713 92.4852C210.7 92.6454 210.682 92.805 210.66 92.964C210.639 93.1232 210.613 93.2818 210.583 93.4397C210.554 93.5974 210.52 93.7544 210.483 93.9107C210.446 94.0669 210.404 94.222 210.359 94.3762C209.814 96.2834 208.23 98.5653 206.471 99.5297C203.858 100.97 201.342 101.631 198.41 100.768C197.535 100.51 196.72 100.12 195.899 99.7269Z" fill="#FFF5F6"/>
<path d="M104.409 16.6921C104.372 16.353 104.378 15.997 104.373 15.6558C104.345 13.7631 104.397 11.8667 104.393 9.97344C104.39 8.13284 104.15 6.00055 104.572 4.21224C104.796 3.26097 105.277 2.4555 105.973 1.77193C106.666 1.08988 107.556 0.539826 108.503 0.297251C110.352 -0.176589 112.603 0.058454 114.504 0.0571946L123.618 0.0583088C123.623 1.4365 123.727 2.93109 123.307 4.25816C122.817 5.80714 121.822 6.72408 120.407 7.4242C120.419 11.5061 121.181 16.3451 118.022 19.5177C117.029 20.5153 115.859 21.0832 114.544 21.54C112.656 22.0687 111.249 22.013 109.354 21.4898C108.915 21.1888 108.381 20.9866 107.923 20.6979C106.32 19.688 105.357 18.2951 104.409 16.6921Z" fill="#111111"/>
<path d="M111.627 7.57227C114.526 7.57857 117.527 7.74056 120.407 7.42432C120.419 11.5062 121.181 16.3452 118.022 19.5178C117.029 20.5154 115.859 21.0833 114.544 21.5401C112.656 22.0688 111.249 22.0131 109.354 21.49C108.915 21.1889 108.381 20.9867 107.923 20.698C106.32 19.6881 105.357 18.2953 104.409 16.6922C105.44 16.7118 108.07 17.0449 108.888 16.3578C109.082 16.195 109.197 15.9625 109.175 15.7058C109.162 15.5491 109.086 15.3747 108.963 15.2764C108.67 15.042 108.358 15.0399 108.003 15.0665C107.472 15.1064 106.945 15.1088 106.412 15.1129L106.408 12.2033L111.594 12.2168C111.671 10.6778 111.622 9.11423 111.627 7.57227Z" fill="#FFF5F6"/>
<path d="M27.8599 192.744C33.1391 195.613 38.0475 197.909 44.1637 196.106C45.7183 195.648 47.1625 194.964 48.5401 194.115C49.2364 193.686 50.0341 193.05 50.7975 192.779C51.1625 192.65 51.4335 192.689 51.7905 192.836C53.3475 196.658 53.9263 203.956 54.2557 208.217C53.5412 208.704 52.7537 209.065 51.9811 209.448L50.365 210.27C44.2698 212.896 36.9524 213.317 30.7354 210.815C30.6734 210.79 30.6119 210.763 30.5501 210.737L29.2707 210.194C27.5698 209.389 25.951 208.334 24.4388 207.221C25.4087 202.531 24.6621 196.687 27.8599 192.744Z" fill="#303030"/>
<path d="M50.365 210.271C50.226 209.88 50.1058 209.257 50.2684 208.87C50.3396 208.701 50.4764 208.688 50.6307 208.617C51.2163 208.666 51.5958 209.04 51.9811 209.448L50.365 210.271Z" fill="#303030"/>
<path d="M29.2707 210.194C29.4853 208.334 29.7459 206.419 30.5647 204.714C30.6742 206.586 30.9079 208.9 30.5502 210.737L29.2707 210.194Z" fill="#303030"/>
<path d="M109.354 21.49C111.249 22.0131 112.656 22.0688 114.544 21.5401C114.547 22.6341 114.453 23.8208 114.579 24.9029C118.794 24.892 122.865 24.5115 126.126 27.7392C129.236 30.8183 129.033 34.5734 129.022 38.6228C129.012 42.6845 129.049 46.7555 128.979 50.8162L123.009 50.8213L121.722 50.8245C119.584 50.8133 114.902 50.5835 112.978 50.893C112.325 50.9429 111.697 50.9577 111.043 50.9371C108.192 50.7484 105.179 50.7983 102.322 50.8932L101.13 50.83C99.005 50.9405 96.8282 50.8443 94.6977 50.846L94.6635 35.3286C94.6834 32.4628 95.3705 29.6941 97.4874 27.6324C100.826 24.38 105.041 24.8862 109.315 24.9278C109.405 23.8 109.346 22.6242 109.354 21.49Z" fill="#696969"/>
<path d="M101.13 50.8301L101.101 41.2639C101.1 39.727 100.97 38.0625 101.117 36.5381C101.143 36.2657 101.183 36.1741 101.372 35.9719C101.496 35.8392 101.635 35.7898 101.8 35.7268C102.055 35.8372 102.098 35.8527 102.214 36.123C102.584 36.9927 102.426 49.0561 102.322 50.8933L101.13 50.8301Z" fill="#303030"/>
<path d="M121.722 50.8246C121.612 48.8614 121.388 36.6968 121.712 35.9835C122.009 35.7724 122.082 35.705 122.439 35.6685C122.807 35.9535 122.907 36.2504 122.971 36.706C123.168 38.1034 122.995 39.6081 123.004 41.022C123.022 44.2855 123.073 47.5587 123.009 50.8214L121.722 50.8246Z" fill="#303030"/>
<path d="M109.354 21.49C111.249 22.0131 112.656 22.0688 114.544 21.5401C114.547 22.6341 114.453 23.8208 114.579 24.9029C114.572 25.4418 114.52 25.8884 114.212 26.3483C113.818 26.9382 113.178 27.3148 112.483 27.4294C111.712 27.5568 110.91 27.3802 110.29 26.8971C109.636 26.3875 109.412 25.7249 109.315 24.9278C109.405 23.8 109.346 22.6242 109.354 21.49Z" fill="url(#paint0_linear_1_214)"/>
<path d="M109.224 198.996C110.754 199.768 112.229 200.179 113.937 199.647C114.396 199.503 114.843 199.299 115.272 199.082C115.256 199.925 115.039 201.43 115.368 202.185L115.471 202.225C119.759 202.272 124.191 201.593 127.503 204.929C128.724 206.158 129.674 207.723 130.094 209.409C130.755 212.068 130.425 215.466 130.42 218.233L130.423 229.319L125.188 229.324L123.921 229.325L107.346 229.33C104.804 229.339 102.076 229.606 99.5605 229.339L99.3811 229.38C97.6928 229.295 95.9813 229.347 94.2898 229.349L94.2748 217.598C94.2724 215.009 93.991 212.098 94.5708 209.573C94.6202 209.353 94.6772 209.135 94.742 208.92C94.8066 208.704 94.8786 208.49 94.958 208.28C95.0374 208.069 95.1242 207.861 95.2181 207.656C95.3121 207.451 95.413 207.25 95.5209 207.052C95.6289 206.854 95.7436 206.66 95.865 206.471C95.9864 206.281 96.1143 206.095 96.2486 205.914C96.383 205.734 96.5233 205.558 96.6698 205.386C96.8164 205.215 96.9687 205.049 97.1268 204.889C100.397 201.619 104.985 202.208 109.215 202.209L109.224 198.996Z" fill="#111111"/>
<path d="M99.3811 229.381C99.2905 226.628 99.3678 223.862 99.3646 221.107C99.3629 219.373 99.2186 217.513 99.3799 215.794C99.4181 215.385 99.4184 215.222 99.6843 214.914C100.015 214.831 100.012 214.812 100.314 214.964C100.545 215.315 100.615 215.62 100.643 216.039C100.719 217.163 100.614 218.317 100.601 219.444L100.515 226.207C100.501 226.995 100.702 227.931 100.531 228.689C100.467 228.972 100.42 229.076 100.222 229.274L99.5605 229.339L99.3811 229.381Z" fill="#111111"/>
<path d="M123.921 229.326L123.902 220.334C123.896 219.009 123.749 217.521 123.896 216.209C123.941 215.807 124.018 215.227 124.351 214.949C124.381 214.924 124.418 214.908 124.451 214.887C124.738 214.984 124.826 215.069 124.952 215.351C125.388 216.326 125.192 227.396 125.188 229.324L123.921 229.326Z" fill="#111111"/>
<path d="M109.224 198.996C110.754 199.768 112.229 200.179 113.937 199.647C114.396 199.503 114.843 199.299 115.272 199.082C115.256 199.925 115.039 201.43 115.368 202.185L115.471 202.225C115.128 203.019 115.351 203.824 114.728 204.57C114.176 205.231 113.447 205.731 112.57 205.798C111.74 205.861 110.928 205.525 110.324 204.965C109.466 204.17 109.269 203.33 109.215 202.209L109.224 198.996Z" fill="url(#paint1_linear_1_214)"/>
<path d="M24.3201 63.0672C18.2989 57.7955 14.5961 51.9334 14.0858 43.7656C14.0733 43.5509 14.0636 43.336 14.0565 43.1211C14.0492 42.9062 14.0446 42.6913 14.0427 42.4764C14.0407 42.2614 14.0414 42.0463 14.0446 41.8312C14.0478 41.6163 14.0536 41.4014 14.062 41.1865C14.0704 40.9716 14.0815 40.7569 14.0952 40.5423C14.1088 40.3278 14.125 40.1133 14.1439 39.8991C14.1626 39.685 14.184 39.4711 14.2081 39.2573C14.2321 39.0437 14.2588 38.8303 14.288 38.6172C14.3171 38.4042 14.3488 38.1916 14.3832 37.9793C14.4176 37.7669 14.4545 37.5551 14.4938 37.3438C14.5334 37.1324 14.5755 36.9215 14.62 36.7112C14.6646 36.5008 14.7117 36.291 14.7612 36.082C14.811 35.8727 14.8632 35.6641 14.9179 35.4561C14.9727 35.2482 15.0299 35.041 15.0896 34.8345C15.1494 34.6278 15.2116 34.4219 15.2764 34.2169C15.3409 34.0118 15.4081 33.8076 15.4779 33.6041C15.5476 33.4007 15.6197 33.1982 15.6941 32.9965C15.7687 32.7948 15.8457 32.5941 15.9252 32.3944C16.0046 32.1945 16.0865 31.9957 16.1708 31.7979C16.255 31.6001 16.3417 31.4033 16.4309 31.2075C16.5198 31.0118 16.6112 30.8172 16.705 30.6238C16.7987 30.4302 16.8947 30.2378 16.9932 30.0466C17.0916 29.8555 17.1922 29.6655 17.2952 29.4768C17.3982 29.288 17.5035 29.1006 17.611 28.9144C17.7187 28.7281 17.8285 28.5432 17.9404 28.3598C18.0525 28.1762 18.1668 27.994 18.2834 27.8132C18.3998 27.6325 18.5184 27.4532 18.6391 27.2753C18.7599 27.0974 18.8829 26.921 19.008 26.7461C19.133 26.5711 19.2601 26.3977 19.3894 26.2259C19.5186 26.0541 19.6499 25.8839 19.7835 25.7151C19.9168 25.5466 20.0522 25.3796 20.1896 25.2143C20.327 25.0488 20.4664 24.8851 20.6079 24.7231C25.3765 19.324 31.9142 16.4376 39.0492 16.0104C39.2617 15.9967 39.4744 15.9856 39.6872 15.977C39.9 15.9686 40.1128 15.9628 40.3258 15.9596C40.5388 15.9563 40.7517 15.9557 40.9647 15.9576C41.1777 15.9597 41.3905 15.9644 41.6033 15.9717C41.8162 15.9789 42.0289 15.9888 42.2415 16.0012C42.454 16.0138 42.6664 16.029 42.8787 16.0468C43.0909 16.0645 43.3029 16.0849 43.5147 16.1078C43.7264 16.1307 43.9377 16.1563 44.1487 16.1846C44.3599 16.2127 44.5706 16.2434 44.7809 16.2768C44.9912 16.3103 45.2011 16.3463 45.4105 16.3849C45.6199 16.4234 45.8289 16.4645 46.0373 16.5081C46.2458 16.5519 46.4536 16.5982 46.661 16.6471C46.8683 16.6959 47.0749 16.7472 47.281 16.8012C47.487 16.8551 47.6923 16.9116 47.8968 16.9707C48.1014 17.0296 48.3052 17.0912 48.5084 17.1553C48.7115 17.2192 48.9138 17.2857 49.1153 17.3548C49.3168 17.4238 49.5174 17.4952 49.7171 17.5691C49.9168 17.6431 50.1156 17.7195 50.3134 17.7985C50.5112 17.8773 50.708 17.9586 50.9038 18.0424C51.0997 18.126 51.2944 18.2122 51.488 18.3008C51.6817 18.3893 51.8744 18.4802 52.0659 18.5735C52.2572 18.6667 52.4475 18.7622 52.6367 18.8603C52.8258 18.9583 53.0135 19.0585 53.2 19.161C53.3867 19.2637 53.572 19.3686 53.7561 19.4756C53.9401 19.5829 54.1228 19.6923 54.3041 19.8041C54.4855 19.9156 54.6654 20.0295 54.844 20.1458C55.0226 20.2619 55.1996 20.3801 55.3751 20.5006C55.5508 20.621 55.7249 20.7437 55.8975 20.8685C56.0701 20.9933 56.2411 21.1201 56.4105 21.2489C56.58 21.378 56.7478 21.5091 56.914 21.6423C57.0803 21.7753 57.2448 21.9104 57.4075 22.0477C57.5704 22.1849 57.7317 22.3241 57.8912 22.4652C58.0635 22.617 58.2339 22.7709 58.4024 22.9268C58.5708 23.0828 58.7373 23.2409 58.9018 23.401C59.0662 23.5612 59.2286 23.7234 59.3891 23.8876C59.5494 24.0519 59.7078 24.2182 59.864 24.3865C60.0202 24.5547 60.1742 24.7249 60.3261 24.897C60.4781 25.0691 60.6278 25.2431 60.7754 25.4189C60.923 25.5949 61.0683 25.7727 61.2113 25.9522C61.3544 26.1318 61.4952 26.3131 61.6337 26.4962C61.7722 26.6793 61.9084 26.8641 62.0423 27.0505C62.1761 27.2372 62.3076 27.4254 62.4368 27.6151C62.5658 27.805 62.6925 27.9965 62.8168 28.1896C62.9411 28.3825 63.063 28.5771 63.1825 28.7732C63.3018 28.9692 63.4187 29.1668 63.5332 29.3659C63.6477 29.5648 63.7595 29.7652 63.8689 29.9672C63.9783 30.169 64.0852 30.3722 64.1895 30.5768C64.2938 30.7812 64.3955 30.987 64.4944 31.1941C64.5936 31.4013 64.6901 31.6096 64.7841 31.819C64.8779 32.0286 64.969 32.2393 65.0575 32.4511C65.1462 32.6629 65.2321 32.8758 65.3152 33.0897C65.3984 33.3038 65.4788 33.5188 65.5567 33.7347C65.6345 33.9507 65.7096 34.1677 65.7819 34.3857C65.8542 34.6035 65.9238 34.8223 65.9907 35.042C66.0575 35.2616 66.1215 35.4821 66.1827 35.7034C66.2441 35.9246 66.3025 36.1465 66.3581 36.3692C66.4138 36.592 66.4666 36.8155 66.5167 37.0396C66.5667 37.2635 66.6141 37.4882 66.6586 37.7136C66.703 37.9388 66.7445 38.1645 66.7831 38.3907C66.8219 38.6171 66.8578 38.8439 66.8909 39.071C66.9238 39.2982 66.9539 39.5258 66.9812 39.7538C67.0085 39.9817 67.033 40.21 67.0546 40.4387C67.0761 40.6671 67.0947 40.8959 67.1105 41.125C67.1264 41.354 67.1393 41.5832 67.1493 41.8126C67.1588 42.0152 67.1658 42.2179 67.1701 42.4207C67.1746 42.6234 67.1767 42.8262 67.1764 43.0291C67.1759 43.2319 67.173 43.4346 67.1677 43.6372C67.1622 43.84 67.1543 44.0427 67.144 44.2454C67.1336 44.4478 67.1208 44.6502 67.1055 44.8525C67.0903 45.0547 67.0726 45.2567 67.0524 45.4585C67.0321 45.6603 67.0094 45.8618 66.9844 46.063C66.9592 46.2643 66.9316 46.4653 66.9015 46.6658C66.8715 46.8663 66.839 47.0665 66.8042 47.2664C66.7691 47.4661 66.7318 47.6655 66.692 47.8644C66.6523 48.0633 66.6101 48.2617 66.5654 48.4594C66.5208 48.6572 66.4737 48.8545 66.4242 49.0513C66.3748 49.248 66.3229 49.444 66.2687 49.6394C66.2144 49.8349 66.1579 50.0296 66.0989 50.2235C66.04 50.4176 65.9786 50.6109 65.9149 50.8036C65.8512 50.996 65.7852 51.1878 65.7167 51.3788C65.6485 51.5696 65.5777 51.7596 65.5046 51.9489C65.4316 52.1381 65.3563 52.3264 65.2786 52.5139C65.2011 52.7012 65.1213 52.8876 65.0391 53.0731C64.9569 53.2585 64.8725 53.4428 64.7858 53.6263C64.6991 53.8095 64.6102 53.9918 64.5191 54.1731C64.4281 54.3543 64.3348 54.5343 64.2392 54.7132C64.1436 54.8921 64.0459 55.0698 63.9461 55.2463C63.8463 55.4229 63.7444 55.5982 63.6402 55.7723C63.5361 55.9463 63.4299 56.1191 63.3215 56.2906C63.2132 56.4619 63.1027 56.632 62.9902 56.8009C62.8777 56.9696 62.7631 57.1369 62.6465 57.3029C62.53 57.4687 62.4114 57.6332 62.2908 57.7963C62.1702 57.9593 62.0476 58.1209 61.9231 58.2811C61.7985 58.4411 61.672 58.5996 61.5436 58.7565C61.4153 58.9136 61.285 59.069 61.1527 59.2227C61.0205 59.3766 60.8864 59.5288 60.7505 59.6793C60.2971 60.1701 59.8351 60.6527 59.3644 61.1271C58.679 60.4121 57.9835 59.7073 57.2777 59.0125C57.2947 55.1598 57.3874 51.9288 55.1249 48.6064C53.2201 45.8097 49.8632 43.8586 46.5728 43.2321C45.7358 43.0647 43.7767 43.0301 43.2439 42.3343C42.9988 42.0141 43.0616 41.7513 43.0647 41.3742C41.668 41.6799 40.4118 41.6186 39.0139 41.3762C38.9947 41.7542 39.0551 41.9996 38.7603 42.2829C38.0035 43.0107 36.012 42.9034 34.9962 43.2437C31.3833 44.0589 28.4618 45.7116 26.4519 48.9072C23.7115 53.264 24.3976 58.1721 24.3201 63.0672Z" fill="#303030"/>
<path d="M37.1692 25.625C36.8894 24.3249 36.8952 23.0764 37.6574 21.9212C37.7302 21.8121 37.8085 21.7069 37.8921 21.6056C37.9756 21.5044 38.064 21.4076 38.1573 21.3152C38.2506 21.2231 38.3483 21.1358 38.4503 21.0534C38.5525 20.9709 38.6586 20.8938 38.7686 20.8222C38.8785 20.7505 38.9918 20.6846 39.1083 20.6245C39.2249 20.5643 39.3442 20.5101 39.4663 20.462C39.5885 20.4139 39.7128 20.372 39.839 20.3363C39.9653 20.3008 40.0931 20.2717 40.2224 20.2491C40.3521 20.2246 40.4827 20.2068 40.6143 20.1959C40.7459 20.1847 40.8777 20.1804 41.0098 20.1828C41.1417 20.1852 41.2732 20.1943 41.4043 20.2101C41.5354 20.2261 41.6653 20.2487 41.794 20.278C41.9226 20.307 42.0496 20.3427 42.1747 20.385C42.2998 20.4271 42.4224 20.4757 42.5426 20.5306C42.6627 20.5853 42.7797 20.6461 42.8935 20.7129C43.0075 20.7796 43.1177 20.852 43.2241 20.9302C44.1839 21.6357 44.7564 22.7362 44.8959 23.9086C44.9649 24.4877 44.8976 25.0568 44.7748 25.623C46.2749 26.2191 47.3403 27.2023 47.9751 28.7102C48.5309 30.0304 48.5832 31.4038 48.5617 32.8133C47.9765 32.7177 47.3657 32.6244 46.8191 32.3847C45.2221 31.6845 44.7615 30.1236 44.2088 28.6162C43.6339 29.3915 43.0473 30.1258 42.3069 30.7516C39.9473 32.747 36.8003 32.9613 33.835 32.708C33.7187 30.6254 33.8386 28.7855 35.282 27.1294C35.833 26.4971 36.4661 26.0655 37.1692 25.625Z" fill="#111111"/>
<path d="M33.835 32.708C36.8003 32.9613 39.9473 32.747 42.3069 30.7516C43.0473 30.1258 43.6339 29.3915 44.2088 28.6162C44.7615 30.1236 45.2222 31.6845 46.8191 32.3847C47.3658 32.6244 47.9765 32.7177 48.5617 32.8133C48.9017 32.9446 49.1243 33.0131 49.302 33.3599C49.6137 33.9676 49.5299 34.8959 49.2686 35.5038C49.1361 35.8118 49.0095 36.0843 48.6755 36.2015C48.5583 36.2425 48.4377 36.2732 48.318 36.3062C47.9124 36.7917 47.6273 37.388 47.3103 37.9351C46.2573 39.751 45.0088 40.6864 43.0647 41.3742C41.6681 41.6798 40.4118 41.6185 39.0139 41.3761C38.7412 41.2837 38.4733 41.1793 38.2101 41.0627C37.4886 40.7413 36.7463 40.3025 36.1852 39.7459C35.5233 39.0894 35.2401 38.2412 34.6996 37.5132C34.361 37.0572 33.9398 36.6857 33.6274 36.2049C33.3893 35.8397 33.1963 35.452 33.0484 35.0419C32.8544 34.4931 32.7582 33.784 33.0605 33.2551C33.2564 32.9121 33.4882 32.83 33.835 32.708Z" fill="#FFF5F6"/>
<path d="M195.899 99.7269C196.72 100.12 197.535 100.51 198.41 100.768C201.342 101.631 203.858 100.97 206.471 99.5298C206.444 100.728 206.431 101.92 206.462 103.119C209.226 103.35 212.086 103.197 214.861 103.179C216.421 103.17 218.232 103.002 219.739 103.456C220.617 103.72 221.424 104.288 222.021 104.977C222.565 105.606 222.962 106.358 223.094 107.184C223.462 109.479 223.224 114.167 223.222 116.733L223.178 137.545L216.906 137.536L215.284 137.547L187.155 137.537L185.53 137.526L178.688 137.525L178.686 115.562L178.72 113.791C178.768 111.33 178.1 106.676 179.84 104.78C180.536 104.022 181.499 103.525 182.499 103.306C184.051 102.967 185.807 103.14 187.388 103.146C190.26 103.157 193.145 103.214 196.015 103.116C196.015 101.981 195.969 100.859 195.899 99.7269Z" fill="#FFF5F6"/>
<path d="M215.284 137.547L215.323 124.802C215.327 123.073 215.166 121.252 215.281 119.537C215.31 119.099 215.386 118.638 215.71 118.319C215.868 118.163 215.997 118.174 216.205 118.131C216.506 118.242 216.571 118.276 216.734 118.578C216.906 118.898 216.91 119.403 216.921 119.755C217.031 123.301 216.93 126.9 216.953 130.454C216.967 132.627 217.215 135.444 216.906 137.536L215.284 137.547Z" fill="#FDD1D5"/>
<path d="M185.53 137.526C185.336 133.691 185.467 129.807 185.476 125.966C185.481 123.882 185.294 121.671 185.481 119.606C185.516 119.207 185.586 118.53 185.865 118.212C185.973 118.088 185.989 118.089 186.113 118.016C186.459 118.039 186.666 118.153 186.904 118.411C187.062 118.582 187.199 118.794 187.232 119.028C187.442 120.547 187.224 122.819 187.226 124.41L187.229 132.836C187.224 134.391 187.284 135.988 187.155 137.537L185.53 137.526Z" fill="#FDD1D5"/>
<path d="M195.899 99.7269C196.72 100.12 197.535 100.51 198.41 100.768C201.342 101.631 203.858 100.97 206.471 99.5298C206.444 100.728 206.431 101.92 206.462 103.119C206.31 104.086 206.116 104.931 205.556 105.755C205.507 105.826 205.456 105.895 205.404 105.964C205.351 106.032 205.297 106.099 205.241 106.165C205.185 106.23 205.128 106.294 205.069 106.357C205.009 106.42 204.949 106.481 204.886 106.54C204.824 106.6 204.76 106.658 204.695 106.714C204.629 106.771 204.563 106.825 204.495 106.878C204.427 106.931 204.357 106.982 204.287 107.032C204.216 107.081 204.144 107.128 204.071 107.174C203.998 107.22 203.924 107.264 203.848 107.306C203.773 107.348 203.697 107.388 203.619 107.426C203.542 107.464 203.464 107.5 203.385 107.534C203.305 107.568 203.225 107.6 203.144 107.63C203.064 107.66 202.982 107.688 202.9 107.714C202.818 107.739 202.735 107.763 202.651 107.785C202.568 107.806 202.484 107.826 202.399 107.843C202.315 107.861 202.23 107.876 202.145 107.889C202.057 107.902 201.968 107.913 201.879 107.922C201.79 107.93 201.701 107.937 201.612 107.942C201.523 107.946 201.433 107.949 201.344 107.949C201.255 107.949 201.165 107.947 201.076 107.943C200.987 107.938 200.898 107.932 200.809 107.924C200.72 107.915 200.632 107.904 200.543 107.891C200.455 107.878 200.367 107.863 200.279 107.846C200.191 107.829 200.104 107.81 200.018 107.788C199.931 107.767 199.845 107.744 199.759 107.718C199.674 107.692 199.589 107.665 199.504 107.635C199.42 107.605 199.337 107.573 199.254 107.539C199.171 107.506 199.09 107.47 199.009 107.432C198.928 107.394 198.848 107.354 198.769 107.313C198.69 107.271 198.612 107.227 198.535 107.182C198.458 107.136 198.382 107.089 198.308 107.04C198.233 106.991 198.16 106.94 198.088 106.887C196.812 105.943 196.228 104.65 196.015 103.116C196.015 101.981 195.969 100.859 195.899 99.7269Z" fill="#919191"/>
<path d="M24.4388 207.221C24.3264 207.142 24.2149 207.063 24.1041 206.983C18.9983 203.287 15.5776 196.467 14.6343 190.345C14.6019 190.127 14.5722 189.909 14.5452 189.691C14.5181 189.472 14.4937 189.253 14.4721 189.034C14.4504 188.815 14.4315 188.595 14.4154 188.376C14.3992 188.156 14.3858 187.936 14.3749 187.716C14.3643 187.496 14.3563 187.276 14.351 187.056C14.3458 186.836 14.3433 186.616 14.3435 186.395C14.3436 186.175 14.3465 185.955 14.3522 185.735C14.3578 185.514 14.3661 185.294 14.3771 185.075C14.3883 184.854 14.4021 184.635 14.4188 184.415C14.4352 184.195 14.4545 183.976 14.4764 183.757C14.4984 183.538 14.5231 183.319 14.5505 183.1C14.578 182.882 14.6081 182.664 14.6409 182.446C14.6736 182.228 14.7092 182.011 14.7474 181.794C14.7855 181.577 14.8264 181.36 14.87 181.145C14.9136 180.929 14.9598 180.713 15.0087 180.498C15.0575 180.284 15.109 180.07 15.1633 179.856C15.2175 179.643 15.2743 179.43 15.3338 179.218C15.3933 179.006 15.4554 178.794 15.52 178.584C15.5847 178.373 15.6521 178.164 15.722 177.955C15.7919 177.746 15.8644 177.538 15.9395 177.331C16.0145 177.124 16.0921 176.918 16.1722 176.713C16.2525 176.507 16.3352 176.303 16.4205 176.1C16.5057 175.897 16.5935 175.695 16.6837 175.494C16.7738 175.293 16.8665 175.093 16.9617 174.895C17.0568 174.696 17.1544 174.499 17.2545 174.303C17.3546 174.107 17.4572 173.912 17.5621 173.718C17.6671 173.524 17.7744 173.332 17.884 173.141C17.9936 172.95 18.1057 172.76 18.2201 172.572C18.3345 172.384 18.4511 172.197 18.5701 172.012C18.6891 171.826 18.8104 171.642 18.9339 171.46C19.0575 171.278 19.1834 171.097 19.3114 170.918C19.4395 170.739 19.5697 170.561 19.7021 170.385C19.8224 170.223 19.9447 170.061 20.069 169.902C20.1933 169.742 20.3196 169.584 20.4478 169.428C20.576 169.272 20.706 169.117 20.838 168.963C20.97 168.81 21.104 168.659 21.2397 168.509C21.3754 168.359 21.5129 168.211 21.6524 168.064C21.7918 167.918 21.933 167.773 22.076 167.63C22.2189 167.487 22.3636 167.345 22.51 167.206C22.6565 167.066 22.8046 166.929 22.9544 166.793C23.1043 166.657 23.2558 166.523 23.409 166.391C23.5622 166.259 23.717 166.129 23.8733 166.001C24.0297 165.872 24.1876 165.746 24.347 165.622C24.5065 165.497 24.6676 165.375 24.8302 165.254C24.9926 165.134 25.1566 165.016 25.3221 164.899C25.4874 164.783 25.6542 164.669 25.8224 164.556C25.9907 164.444 26.1603 164.334 26.3312 164.226C26.5022 164.118 26.6745 164.012 26.8481 163.908C27.0216 163.804 27.1964 163.703 27.3724 163.603C27.5486 163.504 27.7258 163.406 27.9043 163.311C28.0828 163.216 28.2625 163.123 28.4431 163.033C28.624 162.942 28.8058 162.853 28.9888 162.767C29.1717 162.681 29.3557 162.597 29.5407 162.515C29.7257 162.434 29.9117 162.354 30.0987 162.277C30.2857 162.2 30.4736 162.125 30.6625 162.053C30.8513 161.98 31.0409 161.91 31.2314 161.843C31.4221 161.775 31.6135 161.709 31.8057 161.647C31.9978 161.583 32.1907 161.523 32.3845 161.464C32.5781 161.406 32.7724 161.35 32.9674 161.297C33.1625 161.243 33.3582 161.192 33.5545 161.143C33.7508 161.095 33.9477 161.049 34.1452 161.005C34.3425 160.961 34.5404 160.92 34.739 160.881C34.9375 160.842 35.1364 160.805 35.3358 160.771C35.535 160.737 35.7347 160.706 35.9349 160.677C36.3069 160.621 36.68 160.573 37.0541 160.532C37.4282 160.492 37.8029 160.46 38.1783 160.436C38.5539 160.411 38.9297 160.395 39.3057 160.386C39.6819 160.377 40.0581 160.377 40.4343 160.384C40.8105 160.391 41.1863 160.406 41.5617 160.429C41.9372 160.452 42.3122 160.482 42.6864 160.521C43.0607 160.56 43.434 160.606 43.8063 160.661C44.1786 160.715 44.5496 160.777 44.9191 160.847C45.2889 160.917 45.6569 160.994 46.0233 161.08C46.3898 161.165 46.7543 161.258 47.1167 161.359C47.4792 161.459 47.8395 161.568 48.1976 161.683C48.5556 161.799 48.911 161.922 49.2637 162.053C49.6165 162.184 49.9664 162.322 50.3134 162.467C50.6604 162.612 51.0042 162.765 51.3449 162.925C51.6855 163.085 52.0227 163.251 52.3562 163.425C52.6898 163.599 53.0196 163.78 53.3456 163.968C54.9028 164.87 56.3235 165.964 57.7636 167.039C58.2195 167.485 58.6789 167.928 59.1416 168.368C64.0958 173.771 66.7526 179.996 66.4222 187.396C66.4127 187.61 66.4005 187.823 66.3857 188.037C66.3708 188.25 66.3534 188.464 66.3334 188.677C66.3132 188.89 66.2904 189.103 66.2651 189.315C66.2397 189.528 66.2117 189.74 66.181 189.952C66.1503 190.164 66.1171 190.375 66.0812 190.586C66.0454 190.797 66.0069 191.008 65.9657 191.218C65.9247 191.428 65.881 191.637 65.8347 191.846C65.7885 192.055 65.7397 192.264 65.6882 192.472C65.6368 192.679 65.5828 192.886 65.5261 193.093C65.4696 193.299 65.4105 193.505 65.3489 193.71C65.2872 193.915 65.223 194.119 65.1563 194.322C65.0896 194.526 65.0204 194.728 64.9485 194.93C64.8768 195.132 64.8027 195.333 64.726 195.532C64.6493 195.732 64.5702 195.931 64.4886 196.129C64.4069 196.327 64.3228 196.524 64.2363 196.719C64.1497 196.915 64.0608 197.11 63.9696 197.304C63.8782 197.497 63.7845 197.689 63.6884 197.881C63.5924 198.072 63.494 198.262 63.3932 198.451C63.2925 198.64 63.1894 198.827 63.0839 199.014C62.9783 199.2 62.8706 199.385 62.7606 199.568C62.6507 199.752 62.5384 199.934 62.4237 200.115C62.3093 200.296 62.1925 200.475 62.0735 200.653C61.9545 200.831 61.8334 201.008 61.71 201.182C61.5866 201.357 61.4612 201.531 61.3336 201.703C61.2059 201.874 61.0762 202.045 60.9444 202.213C60.8125 202.382 60.6786 202.549 60.5427 202.714C60.4067 202.879 60.2687 203.043 60.1285 203.205C59.9885 203.367 59.8465 203.527 59.7025 203.685C59.5585 203.844 59.4125 204 59.2646 204.155C59.1169 204.31 58.9671 204.463 58.8154 204.614C58.6638 204.765 58.5103 204.914 58.355 205.061C58.1996 205.208 58.0425 205.354 57.8834 205.497C56.7548 206.52 55.5286 207.385 54.2557 208.217C53.9263 203.956 53.3475 196.658 51.7905 192.836C51.4335 192.689 51.1625 192.65 50.7975 192.779C50.0341 193.05 49.2364 193.686 48.5401 194.115C47.1625 194.964 45.7184 195.648 44.1638 196.106C38.0476 197.909 33.1391 195.613 27.8599 192.744C24.6621 196.687 25.4088 202.531 24.4388 207.221Z" fill="#F84757"/>
<path d="M30.7451 181.87C29.9992 179.067 29.8195 176.617 31.3264 174.016C32.6187 171.787 34.865 170.185 37.3431 169.535C37.5139 169.491 37.6857 169.452 37.8584 169.417C38.0312 169.383 38.2047 169.352 38.3789 169.326C38.5531 169.3 38.7279 169.278 38.9032 169.261C39.0786 169.243 39.2542 169.23 39.4302 169.222C39.6062 169.213 39.7823 169.208 39.9584 169.208C40.1348 169.209 40.3109 169.213 40.4869 169.222C40.6629 169.231 40.8386 169.244 41.0139 169.261C41.1892 169.279 41.364 169.301 41.5382 169.327C41.7124 169.353 41.8859 169.384 42.0587 169.418C42.2315 169.453 42.4032 169.492 42.5738 169.536C42.7446 169.579 42.9143 169.627 43.0827 169.679C43.2511 169.731 43.4181 169.787 43.5837 169.847C43.7494 169.907 43.9134 169.971 44.0759 170.039C44.2383 170.107 44.399 170.18 44.5578 170.256C44.7167 170.332 44.8736 170.413 45.0284 170.497C45.1832 170.581 45.3359 170.668 45.4864 170.76C47.6014 172.03 48.9027 173.969 49.4982 176.344C49.9811 178.271 49.7699 180.039 49.0136 181.861C50.5701 182.476 51.8426 183.181 52.5142 184.821C53.0484 186.125 52.9891 187.563 52.4229 188.846C51.8334 190.181 50.8622 190.966 49.6367 191.673C50.3664 191.956 51.2739 192.216 51.7905 192.836C51.4335 192.689 51.1625 192.65 50.7975 192.779C50.0342 193.05 49.2364 193.686 48.5401 194.115C47.1625 194.964 45.7184 195.648 44.1638 196.106C38.0476 197.908 33.1392 195.613 27.86 192.744C28.6681 192.05 29.5301 191.891 30.542 191.69C29.0472 190.998 27.8704 190.122 27.2923 188.505C27.2632 188.424 27.2363 188.343 27.2114 188.261C27.1865 188.179 27.1638 188.097 27.1433 188.014C27.1227 187.93 27.1043 187.847 27.0881 187.763C27.0718 187.679 27.0578 187.594 27.046 187.51C27.034 187.425 27.0243 187.34 27.0169 187.255C27.0095 187.17 27.0042 187.084 27.0012 186.999C26.9981 186.913 26.9973 186.827 26.9987 186.742C27.0002 186.656 27.0038 186.571 27.0096 186.486C27.0155 186.4 27.0235 186.315 27.0339 186.23C27.044 186.145 27.0565 186.061 27.0712 185.976C27.0857 185.892 27.1025 185.808 27.1215 185.724C27.1406 185.641 27.1617 185.558 27.185 185.476C27.2082 185.394 27.2337 185.312 27.2613 185.231C27.2887 185.15 27.3184 185.07 27.3502 184.99C27.3818 184.911 27.4155 184.832 27.4512 184.754C27.487 184.676 27.5248 184.6 27.5645 184.524C28.2879 183.152 29.4029 182.505 30.7451 181.87Z" fill="#FFF5F6"/>
<path d="M41.3876 178.113C43.165 179.503 44.4137 181.013 44.713 183.314C45.0097 185.595 43.5479 188.876 45.6031 190.575C46.5355 191.345 48.3466 191.839 49.5284 191.692C49.5648 191.688 49.6006 191.68 49.6367 191.673C50.3664 191.956 51.2739 192.216 51.7905 192.836C51.4335 192.689 51.1625 192.65 50.7975 192.779C50.0341 193.05 49.2364 193.686 48.5401 194.115C47.1625 194.964 45.7183 195.648 44.1637 196.106C38.0475 197.908 33.1391 195.613 27.8599 192.744C28.6681 192.05 29.5301 191.891 30.5419 191.69C31.8161 191.69 33.522 191.52 34.475 190.593C35.2481 189.841 35.467 188.654 35.4489 187.618C35.4256 186.292 34.3484 182.825 35.4394 181.84C35.8158 181.5 36.5 181.248 36.964 181.051C38.7087 180.307 40.1318 179.584 41.3876 178.113Z" fill="#FFF5F6"/>
<path d="M166.319 166.995C171.272 162.545 178.137 160.5 184.725 160.865C191.711 161.252 198.676 164.534 203.342 169.778C207.845 174.84 209.991 181.223 209.597 187.972C209.206 194.677 205.679 201.456 200.645 205.859C200.111 206.316 199.566 206.759 199.008 207.187C198.02 207.999 196.74 208.917 195.526 209.335L193.971 210.141C187.93 213.048 180.545 212.914 174.283 210.848L172.672 210.148C171.762 209.851 170.865 209.293 170.039 208.816C169.024 208.172 168.037 207.561 167.095 206.807C166.927 206.672 166.762 206.535 166.598 206.396C166.433 206.257 166.271 206.116 166.11 205.973C165.95 205.829 165.791 205.684 165.634 205.537C165.477 205.39 165.322 205.241 165.168 205.091C165.015 204.94 164.863 204.787 164.714 204.633C164.564 204.478 164.416 204.322 164.27 204.164C164.124 204.006 163.98 203.846 163.838 203.684C163.696 203.523 163.556 203.359 163.418 203.194C163.28 203.029 163.144 202.863 163.01 202.695C162.876 202.526 162.744 202.356 162.615 202.185C162.485 202.013 162.357 201.84 162.231 201.666C162.106 201.491 161.982 201.315 161.861 201.137C161.74 200.959 161.62 200.78 161.504 200.6C161.387 200.419 161.272 200.237 161.159 200.054C161.047 199.87 160.937 199.686 160.829 199.5C160.721 199.314 160.615 199.126 160.512 198.938C160.408 198.749 160.307 198.559 160.208 198.368C160.11 198.177 160.013 197.985 159.919 197.791C159.825 197.598 159.733 197.403 159.644 197.208C159.554 197.012 159.467 196.815 159.383 196.617C159.298 196.419 159.216 196.221 159.136 196.021C159.057 195.821 158.979 195.62 158.904 195.419C158.83 195.217 158.757 195.014 158.687 194.811C158.618 194.607 158.55 194.403 158.485 194.198C158.42 193.993 158.358 193.787 158.298 193.58C158.238 193.374 158.181 193.167 158.126 192.958C158.071 192.75 158.019 192.542 157.969 192.333C157.919 192.123 157.872 191.913 157.827 191.703C157.783 191.493 157.741 191.282 157.701 191.07C157.662 190.859 157.625 190.647 157.591 190.434C157.556 190.222 157.525 190.009 157.496 189.796C157.466 189.583 157.44 189.369 157.416 189.156C156.799 183.349 158.437 177.047 161.708 172.224C162.673 170.801 163.841 169.591 164.909 168.256C165.424 167.959 165.888 167.408 166.319 166.995Z" fill="#F84757"/>
<path d="M170.134 195.175C170.128 195.092 170.123 195.009 170.121 194.926C170.062 192.89 169.793 189.753 170.27 187.834C170.936 185.156 173.207 184.626 174.221 182.428C175.841 178.92 173.511 175.416 177.388 171.396C179.104 169.616 181.448 168.698 183.903 168.658C185.764 168.628 187.482 169.028 189.066 170.029C194.155 173.242 191.942 178.605 194.126 183.126C194.875 184.676 196.012 185.409 197.18 186.564C199.04 188.405 198.479 192.514 198.444 194.949C196.706 191.958 194.533 191.047 191.329 190.075C189.801 189.617 188.276 189.147 186.755 188.665C186.62 189.677 186.562 190.431 185.695 191.101C185.051 191.599 184.163 191.738 183.372 191.606C182.611 191.48 181.936 191.089 181.5 190.442C181.164 189.943 181.243 189.313 181.255 188.74C176.81 190.303 172.427 190.499 170.134 195.175Z" fill="#111111"/>
<path d="M181.219 185.88C179.721 185.2 178.62 183.436 178.047 181.942C177.633 180.863 177.245 179.417 177.765 178.323C177.984 177.86 178.304 177.789 178.762 177.644C183.061 176.281 182.809 175.357 185.486 172.118C186.04 173.552 186.989 176.683 188.505 177.38C189.257 177.727 190.3 177.733 190.682 178.582C191.163 179.654 190.492 181.485 190.014 182.494C189.424 183.742 188.222 185.464 186.855 185.871C186.813 185.884 186.768 185.889 186.725 185.898L186.755 188.665C186.62 189.677 186.562 190.431 185.695 191.101C185.051 191.599 184.163 191.738 183.372 191.606C182.611 191.48 181.936 191.089 181.5 190.442C181.164 189.942 181.243 189.313 181.255 188.74C181.258 187.786 181.247 186.833 181.219 185.88Z" fill="#FFF5F6"/>
<path d="M186.755 188.665C188.276 189.147 189.801 189.617 191.33 190.075C194.533 191.047 196.706 191.958 198.444 194.949C199.463 197.943 198.649 203.79 199.008 207.187C198.02 207.999 196.74 208.917 195.526 209.335L193.971 210.141C187.93 213.048 180.545 212.914 174.283 210.848L172.672 210.148C171.762 209.851 170.865 209.293 170.039 208.816C170.111 205.835 170.026 202.839 170.002 199.856C169.99 198.36 169.808 196.629 170.134 195.175C172.427 190.499 176.81 190.303 181.255 188.74C181.243 189.313 181.164 189.943 181.5 190.442C181.936 191.089 182.611 191.48 183.372 191.606C184.163 191.738 185.051 191.599 185.695 191.101C186.562 190.431 186.62 189.677 186.755 188.665Z" fill="#303030"/>
<path d="M193.971 210.141C193.798 209.657 193.787 198.526 194.034 197.773C194.138 197.454 194.314 197.381 194.597 197.24C194.968 197.275 195.021 197.296 195.322 197.516C195.951 198.542 195.34 207.22 195.514 209.218L195.526 209.335L193.971 210.141Z" fill="#303030"/>
<path d="M172.672 210.148L172.685 201.986C172.684 200.93 172.554 199.799 172.642 198.753C172.67 198.409 172.786 197.928 173.046 197.679C173.252 197.482 173.351 197.438 173.628 197.4L173.892 197.518L173.73 197.422C174.238 197.879 174.253 198.388 174.284 199.044C174.469 202.962 174.094 206.922 174.283 210.848L172.672 210.148Z" fill="#303030"/>
<path d="M0.00808488 137.558L0.000262461 91.9251C0.0034109 90.8655 -0.0650076 89.7323 0.776473 88.9486C1.11345 88.6347 1.53915 88.4214 1.99761 88.3727C3.88018 88.1724 5.8898 88.3107 7.78947 88.3141L18.5634 88.3276L33.26 88.3211C35.996 88.3177 38.7826 88.2029 41.513 88.3683C41.831 88.5611 42.1507 88.789 42.4164 89.0508C42.8112 89.4395 43.0093 89.9585 43.0798 90.5003C43.3244 92.3831 43.1071 95.5882 43.104 97.602L43.096 113.8L43.1122 115.622C43.1958 122.948 43.1386 130.28 43.133 137.607L41.5915 137.606C34.1675 137.757 26.7151 137.625 19.2877 137.615C14.3796 137.608 9.39559 137.812 4.49703 137.569C3.00409 137.525 1.50209 137.556 0.00808488 137.558Z" fill="#111111"/>
<path d="M14.7152 103.602C14.6958 103.458 14.6808 103.314 14.6702 103.17C14.5219 101.31 15.3437 99.1143 16.5454 97.7188C17.6873 96.3929 19.4616 95.4609 21.2136 95.3982C22.8096 95.341 24.2906 96.0034 25.4376 97.0887C27.2779 98.8298 27.4797 100.82 27.5051 103.22C27.1167 103.716 26.7202 104.353 26.2382 104.755C25.5114 103.618 25.2036 102.603 24.8759 101.304C22.5524 101.575 20.2928 101.102 18.4316 99.636C18.218 99.467 18.0068 99.2949 17.798 99.1199C17.0877 100.226 16.6665 101.149 16.6161 102.489C16.6031 102.842 16.6525 103.305 16.5609 103.637C16.4728 103.957 16.3945 103.965 16.1153 104.079C15.5854 104.056 15.201 103.775 14.7152 103.602Z" fill="#111111"/>
<path d="M17.798 99.1201C18.0068 99.2951 18.218 99.4672 18.4316 99.6362C20.2928 101.102 22.5524 101.575 24.876 101.304C25.2037 102.603 25.5115 103.619 26.2383 104.755C26.7202 104.354 27.1167 103.717 27.5052 103.22C28.0859 103.471 28.4727 103.646 28.7355 104.256C29.1034 105.11 29.0295 106.118 28.6667 106.959C28.4693 107.417 28.2603 107.746 27.8038 107.971C27.509 107.986 27.3417 107.964 27.0675 107.854C26.0942 108.856 26.9094 110.069 24.7406 111.785C24.0329 112.202 23.3192 112.558 22.5074 112.723C20.4079 113.15 18.7511 112.227 17.0787 111.11C16.901 110.788 16.6322 110.505 16.4462 110.182C16.0875 109.56 15.8056 108.857 15.498 108.205L15.0114 108.08C14.8509 108.039 14.6888 108.002 14.5326 107.946C14.1536 107.81 13.8928 107.395 13.7424 107.035C13.4227 106.27 13.413 105.275 13.7237 104.505C13.9315 103.991 14.2343 103.816 14.7152 103.602C15.2011 103.775 15.5854 104.056 16.1153 104.079C16.3946 103.965 16.4728 103.957 16.5609 103.637C16.6525 103.305 16.6031 102.842 16.6162 102.49C16.6665 101.149 17.0877 100.226 17.798 99.1201Z" fill="#FFF5F6"/>
<path d="M23.1058 105.125C23.269 105.15 23.448 105.169 23.6049 105.226C23.8951 105.332 24.06 105.516 24.1835 105.792C24.1579 106.232 24.0949 106.288 23.8483 106.634C23.6803 106.616 23.4572 106.61 23.3008 106.55C22.9905 106.429 22.938 106.323 22.7854 106.051C22.7771 105.64 22.8932 105.455 23.1058 105.125Z" fill="#111111"/>
<path d="M18.6798 105.158C18.9198 105.174 19.1942 105.173 19.4253 105.239C19.7161 105.321 19.8145 105.473 19.9498 105.723C19.9574 106.089 19.836 106.261 19.6452 106.554C19.488 106.58 19.2269 106.639 19.0663 106.604C18.7592 106.537 18.7084 106.414 18.5512 106.171C18.4979 105.78 18.5619 105.531 18.6798 105.158Z" fill="#111111"/>
<path d="M19.7532 109.207C20.5744 109.167 21.8956 108.931 22.5824 109.41C22.7129 109.767 22.6635 109.804 22.5439 110.171C22.3196 110.232 22.0932 110.292 21.8638 110.329C21.3259 110.418 20.4747 110.511 20.0351 110.092C19.75 109.82 19.7818 109.564 19.7532 109.207Z" fill="#FFF5F6"/>
<path d="M17.0787 111.11C18.751 112.227 20.4078 113.15 22.5073 112.723C23.3192 112.558 24.0329 112.202 24.7406 111.785C24.7338 112.66 24.773 113.564 24.7083 114.435L24.8217 114.624C29.1828 115.188 33.0302 116.252 35.8499 119.885C38.4694 123.259 38.2796 126.901 38.2762 130.942L38.2662 137.561C39.367 137.562 40.4953 137.511 41.5915 137.606C34.1675 137.757 26.7151 137.625 19.2877 137.615C14.3795 137.608 9.39556 137.812 4.497 137.569C4.47174 134.122 4.15789 127.351 4.82327 124.295C4.90165 123.924 4.99878 123.557 5.11467 123.196C5.23055 122.834 5.3646 122.48 5.5168 122.132C5.66899 121.784 5.83854 121.445 6.02544 121.115C6.21236 120.784 6.41566 120.464 6.63532 120.155C9.2215 116.512 12.8906 115.312 17.101 114.588C17.0942 113.707 17.1465 112.828 17.1889 111.948L17.0787 111.11Z" fill="#696969"/>
<path d="M17.1889 111.948C18.0395 113.314 18.6721 114.771 20.3964 115.176C22.5553 115.683 23.2593 114.551 24.7084 114.435L24.8217 114.624C24.7926 114.724 24.7653 114.825 24.7287 114.924C24.4177 115.76 23.6621 116.408 22.8544 116.748C21.7132 117.228 20.3153 117.202 19.1787 116.722C18.155 116.288 17.513 115.609 17.101 114.588C17.0942 113.707 17.1465 112.828 17.1889 111.948Z" fill="#FFF5F6"/>
<path d="M17.0787 111.11C18.751 112.227 20.4078 113.15 22.5074 112.723C23.3192 112.558 24.0329 112.202 24.7406 111.785C24.7338 112.66 24.773 113.564 24.7084 114.435C23.2594 114.551 22.5553 115.684 20.3965 115.176C18.6721 114.771 18.0395 113.314 17.1889 111.948L17.0787 111.11Z" fill="#303030"/>
<path d="M33.7749 126.946C33.9493 126.953 34.1268 126.961 34.2995 126.987C34.5586 127.026 34.7724 127.151 34.9209 127.365C35.0544 127.557 35.0946 127.759 35.1122 127.989C35.2503 129.784 35.1183 131.681 35.1151 133.487C35.1127 134.749 35.268 136.165 35.0732 137.4L34.8705 137.501L33.3363 137.502L33.3474 131.122C33.3515 130.013 33.2372 128.732 33.4525 127.649C33.5039 127.392 33.6351 127.164 33.7749 126.946Z" fill="#696969"/>
<path d="M8.80561 126.973C9.18695 127.067 9.53011 127.134 9.74721 127.494C9.95282 127.836 9.98053 128.421 9.99288 128.815C10.0269 129.903 9.98327 136.988 9.81262 137.441L9.4709 137.505C9.05068 137.512 8.63673 137.504 8.21711 137.481C8.04739 137.227 7.96749 128.254 8.12797 127.608C8.2129 127.266 8.53353 127.149 8.80561 126.973Z" fill="#696969"/>
<path d="M164.803 61.6612L164.686 61.4856C163.693 60.0194 162.371 58.8014 161.385 57.2938C161.271 57.1183 161.158 56.9415 161.048 56.7634C160.938 56.5854 160.83 56.4059 160.724 56.2251C160.618 56.0444 160.515 55.8625 160.413 55.6794C160.312 55.4963 160.212 55.312 160.115 55.1265C160.018 54.941 159.923 54.7543 159.83 54.5666C159.737 54.3788 159.647 54.19 159.558 54.0001C159.47 53.81 159.384 53.6191 159.3 53.4273C159.217 53.2353 159.135 53.0424 159.056 52.8485C158.977 52.6546 158.9 52.4598 158.825 52.2641C158.751 52.0684 158.678 51.8718 158.609 51.6744C158.539 51.4771 158.471 51.2789 158.406 51.0798C158.341 50.8809 158.278 50.6811 158.217 50.4806C158.157 50.2801 158.098 50.0789 158.043 49.8771C157.987 49.6751 157.934 49.4725 157.883 49.2694C157.832 49.0663 157.783 48.8626 157.737 48.6584C157.691 48.454 157.648 48.2492 157.606 48.044C157.565 47.8386 157.526 47.6328 157.49 47.4266C157.454 47.2203 157.42 47.0136 157.388 46.8066C157.357 46.5995 157.328 46.3921 157.301 46.1844C157.275 45.9767 157.25 45.7686 157.229 45.5603C157.207 45.3521 157.188 45.1435 157.171 44.9348C157.155 44.726 157.14 44.5171 157.129 44.308C157.117 44.0989 157.108 43.8896 157.101 43.6802C157.094 43.471 157.09 43.2616 157.088 43.0522C157.086 42.8428 157.087 42.6334 157.09 42.424C157.093 42.2146 157.099 42.0053 157.107 41.796C157.115 41.5868 157.126 41.3776 157.139 41.1685C157.152 40.9594 157.167 40.7506 157.185 40.542C157.203 40.3334 157.224 40.125 157.247 39.9169C157.27 39.7086 157.295 39.5007 157.323 39.2932C157.351 39.0856 157.381 38.8784 157.414 38.6715C157.447 38.4647 157.482 38.2583 157.52 38.0523C158.848 30.8157 162.76 24.4641 168.855 20.2973C174.71 16.2937 181.883 14.9617 188.819 16.3038C189.032 16.3469 189.244 16.3927 189.456 16.4412C189.667 16.4894 189.878 16.5403 190.089 16.5937C190.299 16.6472 190.509 16.7032 190.718 16.7618C190.927 16.8204 191.136 16.8816 191.343 16.9454C191.551 17.009 191.758 17.0752 191.964 17.144C192.169 17.2128 192.374 17.284 192.579 17.3576C192.783 17.4314 192.986 17.5076 193.189 17.5862C193.391 17.665 193.592 17.7462 193.793 17.8299C193.993 17.9135 194.192 17.9996 194.391 18.088C194.589 18.1765 194.786 18.2673 194.982 18.3605C195.178 18.4538 195.373 18.5495 195.567 18.6475C195.761 18.7457 195.953 18.8461 196.145 18.9488C196.336 19.0515 196.526 19.1566 196.715 19.2641C196.903 19.3715 197.091 19.4811 197.277 19.593C197.463 19.7049 197.648 19.8191 197.831 19.9357C198.014 20.0521 198.196 20.1708 198.376 20.2917C198.557 20.4126 198.735 20.5357 198.913 20.661C199.09 20.7862 199.266 20.9136 199.44 21.0432C199.614 21.1727 199.787 21.3044 199.958 21.4382C200.129 21.5719 200.299 21.7077 200.466 21.8456C200.634 21.9836 200.8 22.1236 200.964 22.2655C201.129 22.4074 201.291 22.5514 201.452 22.6973C201.613 22.8433 201.772 22.9911 201.929 23.1408C202.086 23.2906 202.241 23.4424 202.395 23.5961C202.548 23.7497 202.7 23.9051 202.85 24.0623C202.999 24.2196 203.147 24.3787 203.293 24.5397C203.439 24.7005 203.582 24.8631 203.724 25.0277C203.866 25.192 204.006 25.3581 204.144 25.5259C204.281 25.6938 204.417 25.8633 204.551 26.0344C204.684 26.2056 204.816 26.3783 204.945 26.5525C205.075 26.7269 205.202 26.9028 205.327 27.0802C205.452 27.2577 205.575 27.4366 205.696 27.6171C205.819 27.8023 205.941 27.989 206.059 28.1771C206.178 28.3652 206.295 28.5547 206.409 28.7457C206.523 28.9367 206.634 29.1291 206.744 29.3229C206.853 29.5166 206.96 29.7117 207.064 29.908C207.169 30.1045 207.271 30.3022 207.371 30.5011C207.47 30.7 207.567 30.9002 207.662 31.1015C207.757 31.3028 207.849 31.5054 207.938 31.7091C208.028 31.9127 208.115 32.1174 208.2 32.3231C208.284 32.5289 208.366 32.7358 208.445 32.9436C208.525 33.1514 208.602 33.3601 208.676 33.5699C208.75 33.7796 208.822 33.9902 208.891 34.2017C208.96 34.4132 209.026 34.6256 209.09 34.8387C209.154 35.0518 209.215 35.2657 209.273 35.4805C209.332 35.6951 209.387 35.9104 209.441 36.1264C209.494 36.3424 209.544 36.5591 209.592 36.7764C209.64 36.9938 209.685 37.2116 209.727 37.4301C209.77 37.6484 209.809 37.8672 209.846 38.0867C209.883 38.3061 209.917 38.5259 209.949 38.7461C209.98 38.9664 210.009 39.187 210.035 39.408C210.061 39.6289 210.084 39.8501 210.105 40.0716C210.125 40.2932 210.143 40.5149 210.158 40.7369C210.173 40.9589 210.185 41.181 210.195 41.4032C210.204 41.6255 210.211 41.8479 210.215 42.0704C210.219 42.2927 210.221 42.5151 210.219 42.7376C210.218 42.9601 210.214 43.1825 210.207 43.4049C210.2 43.6274 210.19 43.8496 210.177 44.0716C210.165 44.2938 210.15 44.5158 210.131 44.7376C210.114 44.9593 210.093 45.1807 210.069 45.4019C210.046 45.6231 210.02 45.8441 209.991 46.0648C209.962 46.2854 209.93 46.5055 209.896 46.7253C209.861 46.9452 209.824 47.1645 209.784 47.3833C209.744 47.6022 209.702 47.8206 209.657 48.0384C208.159 55.4142 203.693 61.5476 197.424 65.6207C197.365 65.6592 197.304 65.6956 197.243 65.7329C195.938 66.5263 194.525 67.1368 193.124 67.7408L191.645 68.2293C186.09 69.9537 180.644 69.7011 175.086 68.1835C174.547 68.0131 174.017 67.8324 173.487 67.6326C172.022 66.9649 170.573 66.316 169.27 65.3575C168.101 64.7239 166.98 63.7196 165.916 62.9068C165.513 62.5062 165.145 62.1163 164.803 61.6612Z" fill="#F84757"/>
<path d="M181.068 40.8232C177.17 40.7964 172.869 39.7286 170.047 36.8707C169.575 36.3929 168.855 35.6017 168.87 34.8877C168.875 34.6196 168.987 34.49 169.194 34.343C170.63 33.3234 172.261 33.4966 173.777 31.8049C175.103 30.3256 174.976 28.4571 175.7 26.7383C177.207 23.1588 181.262 21.3308 184.999 22.1C187.025 22.517 188.815 23.5785 189.927 25.3533C191.299 27.5422 191.397 30.2949 193.198 32.2849C194.06 33.2384 196.509 34.3176 196.894 35.033C196.996 35.2236 196.937 35.6615 196.886 35.864C196.526 37.2897 194.588 38.4949 193.36 39.1534C190.752 40.5515 187.793 40.9654 184.868 40.8138C184.733 40.2645 184.786 39.6668 184.79 39.1037C183.485 39.1972 182.458 39.2158 181.17 38.9189C181.188 39.5457 181.208 40.1689 181.179 40.7956L181.068 40.8232Z" fill="#FDD1D5"/>
<path d="M181.17 38.9191C179.353 37.9183 178.035 36.7248 177.465 34.6444C177.289 34.001 177.175 33.2153 177.519 32.6045C177.914 31.9009 178.726 31.5546 179.481 31.3962C180.497 31.1829 181.578 31.2422 182.61 31.1298C184.529 30.9211 186.757 29.9148 187.885 28.2967C188.081 28.0119 188.27 27.7226 188.452 27.4287C189.711 29.1722 190.082 31.4093 189.734 33.518C189.433 35.3444 188.501 37.0932 186.959 38.1642C186.302 38.6207 185.569 38.9261 184.79 39.1038C183.485 39.1973 182.458 39.216 181.17 38.9191Z" fill="#FFF5F6"/>
<path d="M181.17 38.9189C182.458 39.2159 183.485 39.1972 184.79 39.1037C184.786 39.6668 184.733 40.2645 184.868 40.8138L184.827 40.8562L184.853 43.0858C189.001 43.7559 192.552 44.7162 195.123 48.3132C197.461 51.5846 197.244 54.9571 197.231 58.7856C197.207 61.1014 197.211 63.4171 197.243 65.7327C195.938 66.5261 194.525 67.1367 193.124 67.7407L191.645 68.2292C186.09 69.9536 180.644 69.701 175.086 68.1834C174.547 68.0129 174.016 67.8323 173.487 67.6325C172.022 66.9647 170.573 66.3159 169.27 65.3573C169.215 63.1452 169.187 60.9327 169.185 58.72C169.166 54.8379 169.009 51.3245 171.419 48.0327C173.866 44.6888 177.181 43.6794 181.108 43.0952C181.176 42.4057 181.267 41.4881 181.068 40.8233L181.179 40.7957C181.208 40.1689 181.188 39.5457 181.17 38.9189Z" fill="#111111"/>
<path d="M191.619 56.5369L193.164 56.5154L193.124 67.7408L191.645 68.2293L191.619 56.5369Z" fill="#F84757"/>
<path d="M173.488 56.5105L175.109 56.5149C175.134 60.4044 175.126 64.2939 175.086 68.1835C174.547 68.013 174.016 67.8323 173.487 67.6325L173.488 56.5105Z" fill="#F84757"/>
<path d="M181.17 38.9189C182.458 39.2159 183.485 39.1972 184.79 39.1037C184.786 39.6668 184.733 40.2645 184.868 40.8138L184.827 40.8562L184.853 43.0858C184.749 43.638 184.628 43.9676 184.161 44.3047C184.107 44.3446 184.051 44.3815 183.993 44.4154C183.934 44.4495 183.874 44.4802 183.813 44.5077C183.751 44.5351 183.689 44.5592 183.625 44.5801C183.56 44.6007 183.495 44.618 183.43 44.6319C183.364 44.6456 183.297 44.6558 183.23 44.6624C183.163 44.6692 183.096 44.6723 183.029 44.6716C182.961 44.6711 182.894 44.667 182.827 44.6593C182.76 44.6515 182.694 44.6402 182.628 44.6254C182.146 44.5205 181.581 44.2214 181.348 43.7627C181.243 43.5544 181.176 43.318 181.108 43.0952C181.176 42.4057 181.267 41.4881 181.068 40.8233L181.179 40.7957C181.208 40.1689 181.188 39.5457 181.17 38.9189Z" fill="#FFF5F6"/>
<path d="M181.17 38.9189C182.458 39.2159 183.485 39.1972 184.79 39.1037C184.786 39.6668 184.733 40.2645 184.868 40.8138L184.827 40.8562C183.813 40.5033 182.229 40.5971 181.179 40.7957C181.208 40.1689 181.188 39.5457 181.17 38.9189Z" fill="#FFF5F6"/>
<path d="M57.2778 59.0125C57.9835 59.7072 58.6791 60.412 59.3644 61.127C63.217 65.0756 67.1044 68.9895 71.0267 72.8687C72.8507 72.3131 84.023 72.6156 86.7483 72.6154L102.408 72.6149C103.57 72.6147 104.743 72.5282 105.899 72.5381C106.219 72.541 106.523 72.5728 106.811 72.7224C107.026 72.8346 107.077 72.9537 107.215 73.1448C107.258 73.4664 107.299 73.6771 107.195 73.9922C106.503 74.6769 105.677 75.1794 104.963 75.8329C103.014 77.6171 101.969 80.3436 101.965 82.9592C101.964 83.125 101.967 83.2908 101.974 83.4564C101.981 83.6221 101.993 83.7875 102.008 83.9527C102.024 84.1178 102.043 84.2824 102.067 84.4465C102.091 84.6107 102.118 84.7742 102.15 84.9369C102.182 85.0997 102.217 85.2616 102.257 85.4228C102.297 85.5837 102.341 85.7437 102.388 85.9025C102.436 86.0612 102.488 86.2187 102.543 86.375C102.598 86.5313 102.658 86.6862 102.721 86.8396C102.784 86.9929 102.851 87.1446 102.922 87.2946C102.992 87.4446 103.067 87.5928 103.145 87.7393C103.223 87.8856 103.304 88.0298 103.39 88.1721C103.475 88.3145 103.563 88.4546 103.655 88.5925C103.747 88.7304 103.843 88.8659 103.942 88.9991C104.041 89.1323 104.143 89.263 104.248 89.391C104.353 89.5192 104.462 89.6446 104.573 89.7674C104.685 89.8901 104.799 90.0099 104.917 90.127C106.949 92.1376 109.565 93.1774 112.42 93.1272C115.15 93.079 117.642 91.949 119.53 89.9834C119.645 89.866 119.757 89.7459 119.866 89.623C119.974 89.5001 120.08 89.3746 120.182 89.2464C120.285 89.1182 120.384 88.9876 120.48 88.8546C120.576 88.7213 120.669 88.586 120.758 88.4484C120.847 88.3107 120.933 88.1708 121.015 88.0287C121.098 87.8868 121.176 87.7429 121.251 87.5971C121.327 87.4512 121.398 87.3034 121.466 87.1539C121.533 87.0046 121.598 86.8536 121.658 86.701C121.718 86.5483 121.775 86.3942 121.827 86.2387C121.88 86.0834 121.929 85.9267 121.973 85.7688C122.018 85.6109 122.059 85.4521 122.096 85.2922C122.133 85.1324 122.166 84.9716 122.195 84.81C122.224 84.6486 122.248 84.4865 122.269 84.3237C122.29 84.161 122.307 83.9977 122.32 83.834C122.332 83.6704 122.341 83.5066 122.346 83.3426C122.35 83.1786 122.351 83.0145 122.347 82.8505C122.271 80.2675 121.087 77.6398 119.196 75.8755C118.486 75.2133 116.88 74.4894 116.604 73.5917C116.67 73.202 116.724 73.1424 116.979 72.8351C117.351 72.6728 117.704 72.6222 118.107 72.5967C120.902 72.4212 123.814 72.598 126.619 72.6038L143.945 72.6164C147.221 72.6171 150.54 72.7207 153.81 72.5553C157.504 68.954 161.049 65.2018 164.803 61.661C165.145 62.1161 165.513 62.506 165.916 62.9066C162.144 66.3856 158.574 70.185 155.005 73.8731C155.375 75.5519 155.219 77.4378 155.222 79.1571L155.225 86.5722L155.214 100.252C155.211 102.578 155.288 104.932 155.193 107.256C155.178 107.629 155.19 108.135 154.961 108.441C154.726 108.756 154.422 108.927 154.026 108.952C153.222 109.005 152.699 108.418 152.161 107.907C149.79 105.661 147.881 104.535 144.499 104.591C141.825 104.635 139.351 105.852 137.528 107.782C137.41 107.908 137.295 108.037 137.183 108.169C137.072 108.301 136.964 108.436 136.859 108.573C136.754 108.711 136.653 108.851 136.556 108.993C136.458 109.136 136.364 109.281 136.274 109.428C136.183 109.575 136.097 109.725 136.014 109.876C135.931 110.028 135.852 110.182 135.777 110.337C135.702 110.493 135.631 110.65 135.564 110.81C135.497 110.969 135.434 111.13 135.375 111.292C135.316 111.454 135.261 111.618 135.21 111.783C135.159 111.949 135.113 112.115 135.071 112.283C135.028 112.45 134.99 112.618 134.956 112.788C134.923 112.957 134.893 113.128 134.868 113.299C134.842 113.469 134.822 113.641 134.805 113.813C134.788 113.985 134.776 114.157 134.768 114.33C134.76 114.502 134.757 114.675 134.757 114.848C134.758 115.021 134.763 115.193 134.773 115.366C134.884 117.682 136.284 120.252 138.003 121.769C138.128 121.879 138.255 121.985 138.385 122.088C138.514 122.191 138.646 122.291 138.781 122.388C138.916 122.484 139.052 122.577 139.192 122.667C139.331 122.757 139.472 122.843 139.616 122.926C139.759 123.009 139.905 123.088 140.052 123.164C140.199 123.239 140.348 123.311 140.499 123.38C140.65 123.448 140.803 123.512 140.957 123.573C141.111 123.634 141.267 123.691 141.424 123.744C141.58 123.797 141.738 123.846 141.898 123.892C142.057 123.937 142.218 123.978 142.379 124.016C142.54 124.053 142.703 124.086 142.866 124.116C143.029 124.145 143.192 124.171 143.357 124.192C143.521 124.213 143.686 124.23 143.851 124.243C144.016 124.257 144.181 124.266 144.347 124.271C144.512 124.276 144.678 124.277 144.844 124.273C145.009 124.27 145.175 124.263 145.34 124.252C148.066 124.078 150.047 122.899 151.98 121.049C152.545 120.508 153.161 119.86 153.916 119.605C154.181 119.515 154.486 119.482 154.702 119.691C155.132 120.109 155.189 120.863 155.23 121.431C155.325 122.73 155.254 124.066 155.244 125.368C155.22 127.637 155.21 129.907 155.212 132.176L155.22 155.847C157.482 157.992 159.64 160.254 161.828 162.474C163.315 163.984 164.871 165.452 166.319 166.995C165.888 167.408 165.424 167.959 164.909 168.256C160.959 164.553 157.326 160.454 153.455 156.658L130.271 156.646L123.366 156.657C121.941 156.663 120.467 156.744 119.047 156.619C118.528 156.573 117.906 156.538 117.55 156.119C117.313 155.839 117.216 155.446 117.287 155.087C117.486 154.083 119.156 153.135 119.836 152.351C119.918 152.256 119.997 152.159 120.075 152.061C120.152 151.962 120.227 151.863 120.301 151.761C120.375 151.66 120.446 151.558 120.516 151.454C120.585 151.35 120.653 151.244 120.719 151.138C120.784 151.031 120.848 150.923 120.909 150.814C120.97 150.705 121.03 150.595 121.087 150.484C121.144 150.373 121.199 150.26 121.252 150.147C121.304 150.033 121.355 149.919 121.403 149.803C121.451 149.688 121.498 149.572 121.541 149.454C121.585 149.337 121.627 149.219 121.666 149.101C121.705 148.982 121.742 148.862 121.777 148.742C121.811 148.622 121.844 148.501 121.874 148.379C121.904 148.258 121.931 148.136 121.957 148.013C121.982 147.891 122.005 147.768 122.025 147.644C122.045 147.521 122.064 147.397 122.079 147.273C122.095 147.149 122.108 147.025 122.119 146.9C122.13 146.775 122.138 146.65 122.144 146.525C122.15 146.4 122.154 146.275 122.155 146.15C122.156 146.025 122.155 145.9 122.152 145.775C122.148 145.65 122.142 145.525 122.133 145.4C122.125 145.275 122.114 145.151 122.1 145.026C122.087 144.902 122.072 144.778 122.053 144.654C122.035 144.53 122.015 144.407 121.992 144.284C121.969 144.161 121.944 144.038 121.916 143.916C121.888 143.794 121.858 143.673 121.826 143.552C121.794 143.431 121.759 143.311 121.722 143.191C121.685 143.072 121.646 142.953 121.604 142.835C121.562 142.717 121.519 142.6 121.472 142.483C121.426 142.367 121.378 142.252 121.327 142.137C121.277 142.023 121.224 141.91 121.169 141.797C121.114 141.685 121.057 141.573 120.998 141.463C120.938 141.353 120.877 141.244 120.813 141.136C119.462 138.849 117.429 137.247 114.838 136.603C112.228 135.954 109.39 136.324 107.089 137.737C106.95 137.823 106.813 137.912 106.679 138.004C106.545 138.097 106.413 138.192 106.283 138.291C106.153 138.39 106.026 138.492 105.901 138.597C105.777 138.702 105.655 138.81 105.535 138.921C105.416 139.032 105.299 139.146 105.186 139.263C105.072 139.38 104.961 139.5 104.853 139.622C104.745 139.744 104.641 139.869 104.539 139.997C104.437 140.124 104.339 140.254 104.243 140.386C104.148 140.518 104.056 140.653 103.968 140.79C103.879 140.927 103.794 141.066 103.712 141.207C103.63 141.348 103.552 141.491 103.477 141.635C103.402 141.78 103.331 141.927 103.264 142.075C103.196 142.224 103.132 142.374 103.072 142.525C103.012 142.677 102.955 142.83 102.903 142.984C102.85 143.139 102.801 143.294 102.756 143.451C102.711 143.607 102.67 143.765 102.633 143.924C102.596 144.08 102.563 144.237 102.535 144.394C102.506 144.552 102.481 144.71 102.46 144.869C102.439 145.028 102.422 145.188 102.409 145.347C102.396 145.507 102.388 145.667 102.383 145.827C102.378 145.988 102.377 146.148 102.381 146.308C102.384 146.468 102.391 146.628 102.403 146.788C102.414 146.948 102.429 147.108 102.449 147.267C102.468 147.426 102.491 147.585 102.519 147.742C102.546 147.9 102.577 148.058 102.612 148.214C102.648 148.37 102.687 148.526 102.73 148.68C102.773 148.834 102.82 148.988 102.871 149.14C102.921 149.292 102.976 149.442 103.034 149.592C103.093 149.741 103.155 149.889 103.221 150.035C103.286 150.181 103.356 150.325 103.429 150.468C103.502 150.611 103.579 150.752 103.659 150.89C103.739 151.029 103.822 151.166 103.91 151.3C104.223 151.791 104.572 152.313 104.987 152.723C105.717 153.443 107.316 154.259 107.093 155.464C107.016 155.88 106.783 156.165 106.49 156.453C104.764 156.81 102.895 156.664 101.138 156.663L93.7035 156.655C86.0533 156.644 78.3885 156.773 70.741 156.681C66.8911 160.594 62.9278 164.392 59.1416 168.368C58.6789 167.928 58.2195 167.485 57.7636 167.039C61.7623 163.337 65.6323 159.392 69.477 155.528C69.2513 155.108 69.1067 154.743 69.0481 154.265C68.8567 152.71 68.9987 150.998 69.0028 149.43L69.0178 140.121L69.013 127.604C69.0108 125.603 68.8461 123.503 69.0062 121.514C69.0568 120.886 69.1781 120.053 69.6254 119.568C69.8117 119.366 70.0011 119.219 70.2907 119.239C71.1718 119.3 71.8713 120.463 72.3689 121.07C73.8715 122.902 76.4607 124.041 78.7896 124.242C81.4297 124.469 84.0794 123.787 86.109 122.042C88.287 120.17 89.4146 117.734 89.5858 114.88C89.7343 112.407 88.7592 109.898 87.1358 108.059C85.387 106.078 82.9663 104.841 80.3175 104.699C77.6605 104.557 75.1154 105.317 73.1645 107.171C72.5038 107.799 71.9609 108.576 71.2704 109.164C70.8412 109.529 70.415 109.735 69.8492 109.705C69.4966 109.515 69.354 109.314 69.228 108.931C69.0861 108.5 69.011 108.026 68.9883 107.574C68.8928 105.681 68.9534 103.755 68.9456 101.859L68.9209 90.5755L68.9476 81.3867C68.9558 79.7672 68.8877 78.1055 69.0151 76.4916C69.0796 75.6752 69.2532 75.0128 69.6434 74.2862C68.5579 72.9155 59.0496 62.9536 57.9491 62.3171L57.4238 62.6523L57.2862 62.5988C57.0746 61.5017 57.2688 60.1391 57.2778 59.0125Z" fill="#111111"/>
<defs>
<linearGradient id="paint0_linear_1_214" x1="111.927" y1="21.7201" x2="111.835" y2="27.2105" gradientUnits="userSpaceOnUse">
<stop stop-color="#E7E7E7"/>
<stop offset="1" stop-color="#F2F2F2"/>
</linearGradient>
<linearGradient id="paint1_linear_1_214" x1="112.462" y1="199.075" x2="111.651" y2="205.443" gradientUnits="userSpaceOnUse">
<stop stop-color="#E7E7E7"/>
<stop offset="1" stop-color="#F2F2F2"/>
</linearGradient>
</defs>
</svg>
